<svg xmlns="http://www.w3.org/2000/svg" width="153.759" height="154.131" viewBox="0 0 153.759 154.131"><path d="M156.458,99.539c-42.505,0-89.446-33.635-68.009-88.337h0C42.617,10.832,11.2,48.163,11.2,88.081A77.342,77.342,0,0,0,164.959,99.909C164.959,99.539,159.415,99.539,156.458,99.539Zm-66.9,54.333A66.094,66.094,0,0,1,23.4,87.712C23.4,57.4,44.835,31.9,72.556,23.769v.37c-6.653,46.2,26.243,85.011,76.51,89.446h0C136.129,138.718,118.388,152.764,89.558,153.873Z" transform="translate(-11.2 -11.199)" fill="#24c0ff"/></svg>