<svg xmlns="http://www.w3.org/2000/svg" width="160" height="157.505" viewBox="0 0 160 157.505"><g transform="translate(-6.7 -7.7)"><path d="M83.387,31.4a4.129,4.129,0,0,1-4.055-4.055V11.755a4.055,4.055,0,1,1,8.109,0V27.349A4.129,4.129,0,0,1,83.387,31.4ZM32.549,82.242H16.955a4.055,4.055,0,0,1,0-8.109H32.549a4.055,4.055,0,0,1,0,8.109Zm116.959,0H133.914a4.055,4.055,0,0,1,0-8.109h15.595a4.055,4.055,0,0,1,0,8.109ZM120.814,46.063a3.386,3.386,0,0,1-2.807-1.248,4.338,4.338,0,0,1,0-5.926l10.916-10.916a4.19,4.19,0,0,1,5.926,5.926L123.933,44.815A6.586,6.586,0,0,1,120.814,46.063Zm10.916,83.587a3.386,3.386,0,0,1-2.807-1.248l-10.916-10.916a4.19,4.19,0,0,1,5.926-5.926l10.916,10.916a4.338,4.338,0,0,1,0,5.926A6.586,6.586,0,0,1,131.73,129.649ZM47.52,46.686a3.386,3.386,0,0,1-2.807-1.248L33.8,34.523A4.19,4.19,0,0,1,39.723,28.6L50.639,39.513a4.338,4.338,0,0,1,0,5.926A4.468,4.468,0,0,1,47.52,46.686Z" transform="translate(13.137 0)" fill="#fdf400"/><path d="M89.975,105.24H27.6a20.979,20.979,0,0,1-7.485-40.546A19.313,19.313,0,0,1,39.449,45.98a13.963,13.963,0,0,1,6.238,1.248A27.035,27.035,0,0,1,94.653,63.134a12.794,12.794,0,0,1-.312,3.431A19.781,19.781,0,0,1,109.936,85.9,19.981,19.981,0,0,1,89.975,105.24ZM39.137,54.4A11.051,11.051,0,0,0,28.22,65.318a3.956,3.956,0,0,0,.312,1.871l.624,4.055-4.055.936a12.751,12.751,0,0,0,2.5,25.263H89.975a11.228,11.228,0,0,0,0-22.456h-.624l-6.238.312,1.871-5.926a18.159,18.159,0,0,0,.936-5.926A18.768,18.768,0,0,0,67.207,44.733a18.449,18.449,0,0,0-16.53,9.98l-2.183,4.055-3.743-2.183A8.006,8.006,0,0,0,39.137,54.4Z" transform="translate(0 59.965)" fill="#fff"/><path d="M98.354,55.727a37.427,37.427,0,0,0-74.854,0,38.4,38.4,0,0,0,.624,6.238,4,4,0,0,0,4.366,4.055c1.248,0,3.119-.936,3.431-2.183a7.973,7.973,0,0,0,0-4.678,13.987,13.987,0,0,1-.312-3.431,29.162,29.162,0,1,1,58.324,0c0,1.248-.312,2.5-.312,3.743-.312,1.248-.312,2.5-.624,3.743a40.744,40.744,0,0,1-2.5,6.55,39.722,39.722,0,0,1-4.055,5.926,17.232,17.232,0,0,1-5.3,4.366,62.341,62.341,0,0,1-6.55,3.119,9.911,9.911,0,0,0-2.807.936,3.3,3.3,0,0,0-1.871,2.183,2.812,2.812,0,0,0-.312,1.559,4.687,4.687,0,0,0,4.366,4.366c15.906-3.431,28.382-19.025,28.382-36.491Z" transform="translate(35.598 22.46)" fill="#fdf400"/></g></svg>