<svg xmlns="http://www.w3.org/2000/svg" width="52" height="50.8" viewBox="0 0 52 50.8"><g transform="translate(-6.7 -7.4)"><path d="M40.2,58.2H15.1a8.451,8.451,0,0,1-8.4-8.4,8.343,8.343,0,0,1,5.4-7.9,7.752,7.752,0,0,1,7.8-7.5,5.1,5.1,0,0,1,2.5.5,10.885,10.885,0,0,1,19.7,6.4,6.6,6.6,0,0,1-.1,1.4,7.828,7.828,0,0,1-1.8,15.5ZM19.8,37.7a4.439,4.439,0,0,0-4.4,4.4,2.2,2.2,0,0,0,.1.8l.3,1.6-1.6.4a5.1,5.1,0,0,0,1,10.1H40.3a4.5,4.5,0,0,0,0-9H40l-2.5.1.8-2.4a6.375,6.375,0,0,0,.4-2.4,7.542,7.542,0,0,0-14.2-3.5l-.9,1.6L22,38.6A3.281,3.281,0,0,0,19.8,37.7Z" fill="#fff"/><path d="M58.1,24.7H56.5c-5,0-9.8-2.3-12.3-5.9a12.58,12.58,0,0,1-.9-11.4H43a15.1,15.1,0,0,0-10.9,4.4,15.744,15.744,0,0,0-4.6,11.1,18.251,18.251,0,0,0,.5,4l.1.4.4-.1a15.719,15.719,0,0,1,2.3-.4h.5l-.1-.4a13.318,13.318,0,0,1-.5-3.4,12.958,12.958,0,0,1,8.8-12,14.608,14.608,0,0,0,3.1,11.1,16.754,16.754,0,0,0,11.7,6.2c-2.2,4.2-5,6.4-9,7.1l-.4.1.2.4a8.3,8.3,0,0,1,.6,2.1l.1.4.4-.1A15.4,15.4,0,0,0,58.6,25.4l.1-.4Z" fill="#24c0ff"/></g></svg>