<svg xmlns="http://www.w3.org/2000/svg" width="52.111" height="49.8" viewBox="0 0 52.111 49.8"><g transform="translate(-6.7 -8)"><path d="M43.1,13.9a1.216,1.216,0,0,1-1.2-1.2V9.2a1.2,1.2,0,0,1,2.4,0v3.4a1.24,1.24,0,0,1-1.2,1.3ZM57.6,25H54.2a1.2,1.2,0,1,1,0-2.4h3.4a1.155,1.155,0,0,1,1.2,1.2A1.1,1.1,0,0,1,57.6,25Zm-6.3-7.9a1.222,1.222,0,0,1-.9-.4,1.15,1.15,0,0,1,0-1.7l2.4-2.4a1.2,1.2,0,0,1,1.7,1.7l-2.4,2.4C52,17,51.6,17.1,51.3,17.1Zm2.4,18.3a1.222,1.222,0,0,1-.9-.4l-2.4-2.4a1.2,1.2,0,0,1,1.7-1.7l2.4,2.4a1.15,1.15,0,0,1,0,1.7C54.4,35.3,54,35.4,53.7,35.4ZM35.3,17.2a1.222,1.222,0,0,1-.9-.4L32,14.5a1.2,1.2,0,1,1,1.7-1.7l2.4,2.4a1.15,1.15,0,0,1,0,1.7,1.135,1.135,0,0,1-.8.3Z" fill="#fdf400"/><path d="M45.6,57.8H16a9.3,9.3,0,0,1-3-18.1v-.2A8.493,8.493,0,0,1,21.5,31a7.111,7.111,0,0,1,3.2.7,11.958,11.958,0,0,1,10.1-5.4A12.249,12.249,0,0,1,47,38.5a14.919,14.919,0,0,1-.2,2.1,8.638,8.638,0,0,1-1.2,17.2ZM21.4,33.7a5.8,5.8,0,0,0-5.8,5.8,3.751,3.751,0,0,0,.1,1l.2,1.3-1.3.2A6.671,6.671,0,0,0,16,55.2H45.6a6,6,0,1,0,0-12h-.3l-2,.1.6-1.9a9.291,9.291,0,0,0,.5-2.9,9.488,9.488,0,0,0-17.9-4.4l-.7,1.3-1.2-.7a4.866,4.866,0,0,0-3.2-1Z" fill="#fff"/><path d="M44.6,16a7.57,7.57,0,0,0-8.9,6.2,4.1,4.1,0,0,0-.1,1.1.993.993,0,0,0,.9,1.1c1.1.1,1-1,1.2-1.7a5.689,5.689,0,1,1,11.2,2,4.793,4.793,0,0,1-.7,2,8.6,8.6,0,0,1-2,1.8.78.78,0,0,0,.4,1.4c.8.2,1.5-.4,2.1-1a6.971,6.971,0,0,0,1.7-2.4,8.8,8.8,0,0,0,.5-1.5A7.758,7.758,0,0,0,44.6,16Z" fill="#fdf400"/></g></svg>