<svg xmlns="http://www.w3.org/2000/svg" width="52.2" height="49.6" viewBox="0 0 52.2 49.6"><g transform="translate(-6.7 -8.2)"><path d="M49.3,57.8H16.9A10.243,10.243,0,0,1,6.7,47.6,10.03,10.03,0,0,1,13.6,38v-.2a9.347,9.347,0,0,1,9.3-9.3,7.19,7.19,0,0,1,3.5.8,13.182,13.182,0,0,1,11.1-5.9A13.465,13.465,0,0,1,50.9,36.8a17.852,17.852,0,0,1-.2,2.3,9.573,9.573,0,0,1,8.2,9.4A9.748,9.748,0,0,1,49.3,57.8ZM22.8,31.4a6.274,6.274,0,0,0-6.3,6.3,4.484,4.484,0,0,0,.1,1.1l.2,1.4-1.4.2a7.267,7.267,0,0,0-5.8,7.1,7.341,7.341,0,0,0,7.3,7.3H49.3a6.6,6.6,0,1,0,0-13.2H49l-2.2.1.7-2.1a11.27,11.27,0,0,0,.5-3.2A10.392,10.392,0,0,0,37.6,26a10.543,10.543,0,0,0-9.2,5.6L27.6,33l-1.3-.8A7.19,7.19,0,0,0,22.8,31.4Z" fill="#fff"/><path d="M57.3,19.8a9.629,9.629,0,0,1-8-3.9,8.924,8.924,0,0,1-.6-7.7h-.3a10.5,10.5,0,0,0-7.5,3,10.7,10.7,0,0,0-3.2,7.5,4.869,4.869,0,0,0,.1,1.2v.4h.4a8.752,8.752,0,0,1,1.6.2l.6.1-.1-.6a6.151,6.151,0,0,1-.1-1.3A8.321,8.321,0,0,1,45.6,11a10.1,10.1,0,0,0,2.2,7.3,11.4,11.4,0,0,0,7.7,4.2,7.949,7.949,0,0,1-3.9,3.8l-.6.2.4.5.9,1.2.2.3.3-.2a10.432,10.432,0,0,0,5.9-8l.1-.5Z" fill="#24c0ff"/></g></svg>