<svg xmlns="http://www.w3.org/2000/svg" width="52.8" height="47.7" viewBox="0 0 52.8 47.7"><g transform="translate(-6.5 -8.3)"><path d="M50.9,24.1a19.419,19.419,0,0,0,.2-2.4A13.4,13.4,0,0,0,37.7,8.3a13.583,13.583,0,0,0-11.2,6,9.465,9.465,0,0,0-3.7-.8,9.282,9.282,0,0,0-9.3,9.3v.3A10.209,10.209,0,0,0,16.7,43h5c1.6,0,1.5-2.7,0-2.7h-5a7.517,7.517,0,0,1-1.4-14.9l1.3-.3-.2-1.3a4.1,4.1,0,0,1-.1-1.1,6.659,6.659,0,0,1,6.6-6.6,6.434,6.434,0,0,1,3.5,1l1.2.7.7-1.3a10.725,10.725,0,0,1,20.2,5,12.573,12.573,0,0,1-.5,3.3l-.6,1.9,2.1-.1h.3a6.8,6.8,0,0,1,0,13.6H44.1a1.351,1.351,0,1,0,0,2.7h5.7a9.56,9.56,0,0,0,9.5-9.5,9.741,9.741,0,0,0-8.4-9.3Z" fill="#fff"/><path d="M24.9,46.5a2.353,2.353,0,0,1-.8-.2,1.294,1.294,0,0,1-.3-1.8L26.2,41a1.29,1.29,0,0,1,2.1,1.5L25.9,46A1.231,1.231,0,0,1,24.9,46.5Zm5.8,0a2.353,2.353,0,0,1-.8-.2,1.294,1.294,0,0,1-.3-1.8L32,41a1.294,1.294,0,0,1,1.8-.3,1.28,1.28,0,0,1,.3,1.8L31.7,46A1.231,1.231,0,0,1,30.7,46.5Zm5.8,0a2.353,2.353,0,0,1-.8-.2,1.294,1.294,0,0,1-.3-1.8L37.8,41a1.294,1.294,0,0,1,1.8-.3,1.28,1.28,0,0,1,.3,1.8L37.5,46A1,1,0,0,1,36.5,46.5ZM18.6,56a2.353,2.353,0,0,1-.8-.2,1.28,1.28,0,0,1-.3-1.8l2.4-3.5a1.4,1.4,0,0,1,1.9-.3,1.28,1.28,0,0,1,.3,1.8l-2.4,3.5A1.606,1.606,0,0,1,18.6,56Zm5.9,0a2.353,2.353,0,0,1-.8-.2,1.28,1.28,0,0,1-.3-1.8l2.4-3.5A1.29,1.29,0,0,1,27.9,52l-2.4,3.5A1.231,1.231,0,0,1,24.5,56Zm5.8,0a2.353,2.353,0,0,1-.8-.2,1.28,1.28,0,0,1-.3-1.8l2.4-3.5A1.29,1.29,0,0,1,33.7,52l-2.4,3.5a1.231,1.231,0,0,1-1,.5Z" fill="#24c0ff"/></g></svg>