<svg xmlns="http://www.w3.org/2000/svg" width="41.8" height="41.8" viewBox="0 0 41.8 41.8"><g transform="translate(-12 -12)"><path d="M32.9,19.2a1.324,1.324,0,0,1-1.3-1.3V13.3a1.3,1.3,0,1,1,2.6,0v4.6A1.324,1.324,0,0,1,32.9,19.2Zm0,34.6a1.324,1.324,0,0,1-1.3-1.3V47.9a1.3,1.3,0,0,1,2.6,0v4.6A1.324,1.324,0,0,1,32.9,53.8Zm-15-19.6H13.3a1.3,1.3,0,1,1,0-2.6h4.6a1.3,1.3,0,0,1,0,2.6Zm34.6,0H47.9a1.3,1.3,0,1,1,0-2.6h4.6a1.3,1.3,0,0,1,0,2.6ZM44,23.5a1.086,1.086,0,0,1-.9-.4,1.391,1.391,0,0,1,0-1.9L46.3,18a1.344,1.344,0,0,1,1.9,1.9L45,23.1A1.433,1.433,0,0,1,44,23.5ZM19.1,48.4a1.086,1.086,0,0,1-.9-.4,1.391,1.391,0,0,1,0-1.9l3.2-3.2a1.344,1.344,0,0,1,1.9,1.9L20,48A1.086,1.086,0,0,1,19.1,48.4Zm28.1-.2a1.086,1.086,0,0,1-.9-.4l-3.2-3.2A1.344,1.344,0,0,1,45,42.7l3.2,3.2a1.391,1.391,0,0,1,0,1.9A1.284,1.284,0,0,1,47.2,48.2ZM22.3,23.8a1.086,1.086,0,0,1-.9-.4l-3.2-3.2a1.344,1.344,0,0,1,1.9-1.9l3.2,3.2a1.391,1.391,0,0,1,0,1.9A1.777,1.777,0,0,1,22.3,23.8Zm10.6.7a8.4,8.4,0,1,1-8.4,8.4,8.451,8.451,0,0,1,8.4-8.4m0-2.7A11.1,11.1,0,1,0,44,32.9,11.139,11.139,0,0,0,32.9,21.8Z" fill="#fdf400"/></g></svg>