<svg xmlns="http://www.w3.org/2000/svg" width="52.8" height="52.7" viewBox="0 0 52.8 52.7"><g transform="translate(-6.5 -6.6)"><path d="M25.5,59.3a.9.9,0,0,1-.5-.1,1.278,1.278,0,0,1-.7-1.7l9.3-21.9a1.3,1.3,0,1,1,2.4,1L26.7,58.5A1.3,1.3,0,0,1,25.5,59.3ZM34,53.5a.9.9,0,0,1-.5-.1,1.278,1.278,0,0,1-.7-1.7l6.6-16a1.3,1.3,0,0,1,2.4,1l-6.6,16A1.3,1.3,0,0,1,34,53.5Zm-12.1,0a.9.9,0,0,1-.5-.1,1.278,1.278,0,0,1-.7-1.7l6.6-16a1.3,1.3,0,0,1,2.4,1l-6.6,16A1.206,1.206,0,0,1,21.9,53.5Z" fill="#24c0ff"/><path d="M50.9,22.4a19.419,19.419,0,0,0,.2-2.4A13.4,13.4,0,0,0,37.7,6.6a13.583,13.583,0,0,0-11.2,6,9.465,9.465,0,0,0-3.7-.8,9.347,9.347,0,0,0-9.3,9.3v.3a10.209,10.209,0,0,0,3.2,19.9h5c1.6,0,1.5-2.7,0-2.7h-5a7.517,7.517,0,0,1-1.4-14.9l1.3-.3-.2-1.3a4.1,4.1,0,0,1-.1-1.1,6.659,6.659,0,0,1,6.6-6.6,6.434,6.434,0,0,1,3.5,1l1.2.7.7-1.3a10.725,10.725,0,0,1,20.2,5,12.573,12.573,0,0,1-.5,3.3L47.4,25l2.1-.1h.3a6.8,6.8,0,1,1,0,13.6H44.1a1.351,1.351,0,1,0,0,2.7h5.7a9.56,9.56,0,0,0,9.5-9.5,9.651,9.651,0,0,0-8.4-9.3Z" fill="#fff"/></g></svg>