<svg xmlns="http://www.w3.org/2000/svg" width="52.6" height="52.8" viewBox="0 0 52.6 52.8"><g transform="translate(-6.6 -6.5)"><path d="M19.7,53a1.268,1.268,0,0,1-.6-.1,1.317,1.317,0,0,1-.6-1.8l2.8-5.8a1.342,1.342,0,0,1,2.4,1.2l-2.8,5.8a1.525,1.525,0,0,1-1.2.7Zm-6.6,0a1.268,1.268,0,0,1-.6-.1,1.317,1.317,0,0,1-.6-1.8l2.8-5.8a1.342,1.342,0,0,1,2.4,1.2l-2.8,5.8a1.387,1.387,0,0,1-1.2.7Zm33.7,0a1.268,1.268,0,0,1-.6-.1,1.317,1.317,0,0,1-.6-1.8l2.8-5.8a1.342,1.342,0,0,1,2.4,1.2L48,52.3A1.387,1.387,0,0,1,46.8,53Zm-6.6,0a1.268,1.268,0,0,1-.6-.1,1.317,1.317,0,0,1-.6-1.8l2.8-5.8a1.342,1.342,0,1,1,2.4,1.2l-2.8,5.8a1.387,1.387,0,0,1-1.2.7Z" fill="#24c0ff"/><path d="M27.7,59.3a1.854,1.854,0,0,1-.7-.2,1.3,1.3,0,0,1-.4-1.8l7.9-13.1H26.2L35.5,31a1.28,1.28,0,0,1,1.8-.3,1.4,1.4,0,0,1,.3,1.9l-6.4,9.1h7.9L28.8,58.6a1.356,1.356,0,0,1-1.1.7Z" fill="#fdf400"/><path d="M50.9,22.3a19.419,19.419,0,0,0,.2-2.4A13.4,13.4,0,0,0,37.7,6.5a13.583,13.583,0,0,0-11.2,6,8.988,8.988,0,0,0-3.6-.8A9.347,9.347,0,0,0,13.6,21v.3a10.209,10.209,0,0,0,3.2,19.9h5c1.6,0,1.5-2.6,0-2.6h-5a7.517,7.517,0,0,1-1.4-14.9l1.3-.2-.2-1.3a4.484,4.484,0,0,1-.1-1.1A6.659,6.659,0,0,1,23,14.5a6.434,6.434,0,0,1,3.5,1l1.2.7.7-1.3a10.725,10.725,0,0,1,20.2,5,12.573,12.573,0,0,1-.5,3.3L47.3,25l2.1-.1h.3a6.8,6.8,0,0,1,0,13.6H44a1.3,1.3,0,1,0,0,2.6h5.7a9.434,9.434,0,0,0,1.2-18.8Z" fill="#fff"/></g></svg>