<svg xmlns="http://www.w3.org/2000/svg" width="39.5" height="39.2" viewBox="0 0 39.5 39.2"><path d="M51.6,32H46.4l2.2-2.2a.99.99,0,1,0-1.4-1.4L43.6,32H35.3l5.9-5.9h5.1a1,1,0,0,0,0-2H43.2l3.7-3.7A.99.99,0,0,0,45.5,19l-3.7,3.7V19.6a1,1,0,1,0-2,0v5.1l-5.9,5.9V22.3l3.6-3.6a.99.99,0,1,0-1.4-1.4l-2.2,2.2V14.3a1,1,0,0,0-2,0v5.2l-2.2-2.2a.99.99,0,0,0-1.4,1.4l3.6,3.6v8.3L26,24.7V19.6a1,1,0,1,0-2,0v3.1L20.3,19a.99.99,0,0,0-1.4,1.4l3.7,3.7H19.5a1,1,0,0,0,0,2h5.1L30.5,32H22.2l-3.6-3.6a.99.99,0,0,0-1.4,1.4L19.4,32H14.2a1,1,0,0,0,0,2h5.2l-2.2,2.2a.967.967,0,0,0,0,1.4.908.908,0,0,0,.7.3,1.08,1.08,0,0,0,.7-.3L22.2,34h8.3l-5.9,5.9H19.5a1,1,0,1,0,0,2h3.1L19,45.4a.967.967,0,0,0,0,1.4.908.908,0,0,0,.7.3,1.08,1.08,0,0,0,.7-.3l3.7-3.7v3.1a1,1,0,0,0,2,0V41.1L32,35.2v8.3l-3.6,3.6a.967.967,0,0,0,0,1.4.967.967,0,0,0,1.4,0L32,46.3v5.2a1,1,0,0,0,2,0V46.3l2.2,2.2a.967.967,0,0,0,1.4,0,.967.967,0,0,0,0-1.4L34,43.5V35.2l5.9,5.9v5.1a1,1,0,0,0,2,0V43.1l3.7,3.7a.967.967,0,0,0,1.4,0,.967.967,0,0,0,0-1.4l-3.7-3.7h3.1a1,1,0,0,0,0-2H41.3l-5.9-5.9h8.3l3.6,3.6a.967.967,0,0,0,1.4,0,.967.967,0,0,0,0-1.4l-2.2-2.2h5.2a1,1,0,0,0,1-1,1.327,1.327,0,0,0-1.1-.8Z" transform="translate(-13.2 -13.3)" fill="#24c0ff"/></svg>